{
    "asset" : {
        "generator" : "Khronos glTF Blender I/O v1.3.48",
        "version" : "2.0"
    },
    "scene" : 0,
    "scenes" : [
        {
            "name" : "Scene",
            "nodes" : [
                0
            ]
        }
    ],
    "nodes" : [
        {
            "mesh" : 0,
            "name" : "node-0",
            "rotation" : [
                0,
                -0.2536315321922302,
                0,
                0.9673009514808655
            ],
            "scale" : [
                0.009999999776482582,
                0.009999999776482582,
                0.009999999776482582
            ]
        }
    ],
    "materials" : [
        {
            "doubleSided" : true,
            "emissiveFactor" : [
                0,
                0,
                0
            ],
            "name" : "02___Default",
            "pbrMetallicRoughness" : {
                "baseColorFactor" : [
                    0.03920000046491623,
                    0.03920000046491623,
                    0.03920000046491623,
                    1
                ],
                "metallicFactor" : 0,
                "roughnessFactor" : 0.9699476361274719
            }
        },
        {
            "doubleSided" : true,
            "emissiveFactor" : [
                0,
                0,
                0
            ],
            "name" : "_crayfishdiffuse",
            "pbrMetallicRoughness" : {
                "baseColorFactor" : [
                    0.8431000113487244,
                    0.8118000030517578,
                    0.6039000153541565,
                    1
                ],
                "metallicFactor" : 0,
                "roughnessFactor" : 0.9124375581741333
            }
        },
        {
            "doubleSided" : true,
            "emissiveFactor" : [
                0,
                0,
                0
            ],
            "name" : "03___Default",
            "pbrMetallicRoughness" : {
                "baseColorFactor" : [
                    0.89410001039505,
                    0.26269999146461487,
                    0.09019999951124191,
                    1
                ],
                "metallicFactor" : 0,
                "roughnessFactor" : 0.9699476361274719
            }
        }
    ],
    "meshes" : [
        {
            "name" : "buffer-0-mesh-0",
            "primitives" : [
                {
                    "attributes" : {
                        "POSITION" : 0,
                        "NORMAL" : 1,
                        "TEXCOORD_0" : 2
                    },
                    "indices" : 3,
                    "material" : 0
                },
                {
                    "attributes" : {
                        "POSITION" : 4,
                        "NORMAL" : 5,
                        "TEXCOORD_0" : 6
                    },
                    "indices" : 7,
                    "material" : 1
                },
                {
                    "attributes" : {
                        "POSITION" : 8,
                        "NORMAL" : 9,
                        "TEXCOORD_0" : 10
                    },
                    "indices" : 11,
                    "material" : 2
                }
            ]
        }
    ],
    "accessors" : [
        {
            "bufferView" : 0,
            "componentType" : 5126,
            "count" : 2514,
            "max" : [
                -39.273193359375,
                479.5187072753906,
                256.075927734375
            ],
            "min" : [
                -345.883056640625,
                -0.16660000383853912,
                -121.2923583984375
            ],
            "type" : "VEC3"
        },
        {
            "bufferView" : 1,
            "componentType" : 5126,
            "count" : 2514,
            "type" : "VEC3"
        },
        {
            "bufferView" : 2,
            "componentType" : 5126,
            "count" : 2514,
            "type" : "VEC2"
        },
        {
            "bufferView" : 3,
            "componentType" : 5123,
            "count" : 2514,
            "type" : "SCALAR"
        },
        {
            "bufferView" : 4,
            "componentType" : 5126,
            "count" : 606,
            "max" : [
                324.5325927734375,
                519.563720703125,
                275.6407470703125
            ],
            "min" : [
                -369.8385009765625,
                -4.831099987030029,
                -339.0618896484375
            ],
            "type" : "VEC3"
        },
        {
            "bufferView" : 5,
            "componentType" : 5126,
            "count" : 606,
            "type" : "VEC3"
        },
        {
            "bufferView" : 6,
            "componentType" : 5126,
            "count" : 606,
            "type" : "VEC2"
        },
        {
            "bufferView" : 7,
            "componentType" : 5123,
            "count" : 606,
            "type" : "SCALAR"
        },
        {
            "bufferView" : 8,
            "componentType" : 5126,
            "count" : 36,
            "max" : [
                -163.7188720703125,
                109.07990264892578,
                -26.635009765625
            ],
            "min" : [
                -213.82757568359375,
                98.88469696044922,
                -109.3408203125
            ],
            "type" : "VEC3"
        },
        {
            "bufferView" : 9,
            "componentType" : 5126,
            "count" : 36,
            "type" : "VEC3"
        },
        {
            "bufferView" : 10,
            "componentType" : 5126,
            "count" : 36,
            "type" : "VEC2"
        },
        {
            "bufferView" : 11,
            "componentType" : 5123,
            "count" : 36,
            "type" : "SCALAR"
        }
    ],
    "bufferViews" : [
        {
            "buffer" : 0,
            "byteLength" : 30168,
            "byteOffset" : 0
        },
        {
            "buffer" : 0,
            "byteLength" : 30168,
            "byteOffset" : 30168
        },
        {
            "buffer" : 0,
            "byteLength" : 20112,
            "byteOffset" : 60336
        },
        {
            "buffer" : 0,
            "byteLength" : 5028,
            "byteOffset" : 80448
        },
        {
            "buffer" : 0,
            "byteLength" : 7272,
            "byteOffset" : 85476
        },
        {
            "buffer" : 0,
            "byteLength" : 7272,
            "byteOffset" : 92748
        },
        {
            "buffer" : 0,
            "byteLength" : 4848,
            "byteOffset" : 100020
        },
        {
            "buffer" : 0,
            "byteLength" : 1212,
            "byteOffset" : 104868
        },
        {
            "buffer" : 0,
            "byteLength" : 432,
            "byteOffset" : 106080
        },
        {
            "buffer" : 0,
            "byteLength" : 432,
            "byteOffset" : 106512
        },
        {
            "buffer" : 0,
            "byteLength" : 288,
            "byteOffset" : 106944
        },
        {
            "buffer" : 0,
            "byteLength" : 72,
            "byteOffset" : 107232
        }
    ],
    "buffers" : [
        {
            "byteLength" : 107304,
            "uri" : "data:application/octet-stream;base64,"
        }
    ]
}
